<?xml version="1.0" encoding="UTF-8"?>
<svg id="Layer_1" data-name="Layer 1" xmlns="http://www.w3.org/2000/svg" xmlns:xlink="http://www.w3.org/1999/xlink" version="1.1" viewBox="0 0 300 90.8">
  <defs>
    <style>
      .cls-1 {
        clip-path: url(#clippath);
      }

      .cls-2 {
        fill: none;
      }

      .cls-2, .cls-3, .cls-4, .cls-5 {
        stroke-width: 0px;
      }

      .cls-3 {
        fill: #c91989;
      }

      .cls-6 {
        clip-path: url(#clippath-1);
      }

      .cls-4 {
        fill: #828282;
      }

      .cls-5 {
        fill: #97007c;
      }
    </style>
    <clipPath id="clippath">
      <path class="cls-2" d="M78.4,16.4c-13.2,0-23.9,10.7-23.9,23.9s10.7,23.9,23.9,23.9,23.9-10.7,23.9-23.9-10.7-23.9-23.9-23.9h0ZM78.4,53.9c-7.6,0-13.7-6.1-13.7-13.7s6.1-13.7,13.7-13.7,13.7,6.1,13.7,13.7-6.1,13.7-13.7,13.7h0ZM162.1,43.9c0,3.9-3.2,7.1-7.1,7.1s-7.1-3.2-7.1-7.1,3.2-7.1,7.1-7.1,7.1,3.2,7.1,7.1h0ZM36.2,17.2h-13.2C10,17.5-.2,28.2,0,41.1c.2,12.6,10.4,22.7,23,23,5,0,9.8-2.1,13.2-5.8v4.9h10.3V.1h-10.3v17.1h0ZM36.2,40.7c0,7.3-5.9,13.2-13.2,13.2-7.3,0-13.2-5.9-13.2-13.2,0-7.3,5.9-13.2,13.2-13.2h13.2v13.2ZM142.3,49.3l7.3,7.3c-.3.3-.6.7-.9,1-8.7,8.7-22.9,8.7-31.6,0-4.2-4.2-6.6-9.9-6.6-15.8V.1h10.3v17.1h23.8v10.3h-23.8v14.3c0,6.7,5.4,12.1,12.1,12.1s7.1-1.7,9.4-4.5h0s0,0,0,0Z"/>
    </clipPath>
    <clipPath id="clippath-1">
      <rect class="cls-2" x="-2.2" y="-19.9" width="166.3" height="122.7"/>
    </clipPath>
  </defs>
  <path class="cls-4" d="M31.3,88.2l1.7-1.8c.6,1.1,1.8,1.8,3,1.8,1.4,0,2.4-.9,2.4-2.9v-9.8h2.7v9.9c0,1.5-.4,2.9-1.4,4-1,.9-2.3,1.4-3.6,1.3-1.9,0-3.7-.8-4.8-2.4h0Z"/>
  <path class="cls-4" d="M44.1,83h0c0-4.3,3.5-7.8,7.8-7.8,4.3,0,7.8,3.5,7.9,7.8h0c0,4.4-3.5,7.9-7.8,7.9s-7.8-3.5-7.8-7.8ZM57,83h0c.1-2.8-2.1-5.2-4.9-5.3h-.2c-2.8,0-5.1,2.3-5.1,5.1v.2h0c0,2.9,2.1,5.2,5,5.3h.2c2.8,0,5-2.2,5.1-5v-.3Z"/>
  <path class="cls-4" d="M62.9,75.4h6.7c1.6,0,3.1.4,4.3,1.5.8.9,1.3,2,1.2,3.2h0c0,2.2-1.4,4.1-3.6,4.5l4,5.7h-3.1l-3.7-5.2h-3.3v5.2h-2.6v-15h0ZM69.4,82.8c1.9,0,3.1-1,3.1-2.5h0c0-1.7-1.2-2.5-3.1-2.5h-3.8v5h3.9,0Z"/>
  <path class="cls-4" d="M78.4,75.4h5.6c4.7,0,8,3.2,8,7.4h0c0,4.2-3.2,7.5-8,7.5h-5.6v-15ZM81,77.8v10.2h2.9c2.7.2,5-1.9,5.2-4.6,0-.2,0-.3,0-.5h0c.1-2.7-2-5-4.7-5.1h-3.5,0Z"/>
  <path class="cls-4" d="M99.4,75.4h2.4l6.6,15.1h-2.8l-1.5-3.6h-7.1l-1.5,3.6h-2.7s6.6-15.1,6.6-15.1ZM103.2,84.5l-2.6-6-2.6,6h5.1,0Z"/>
  <path class="cls-4" d="M111,75.4h2.4l8,10.3v-10.3h2.6v15h-2.2l-8.3-10.7v10.7h-2.6s0-15,0-15Z"/>
  <path class="cls-4" d="M173.7,17.3h4.4c3.7,0,6.2,2.6,6.2,5.8h0c0,3.3-2.6,5.9-6.2,5.9h-4.4v-11.7h0ZM175.7,19.1v8h2.3c2.1.1,3.9-1.5,4.1-3.6v-.3h0c0-2.1-1.6-3.9-3.7-4h-2.7c0,0,0,0,0,0Z"/>
  <path class="cls-4" d="M186.9,17.3h2.1v11.8h-2.1v-11.8Z"/>
  <path class="cls-4" d="M191.6,23.2h0c0-3.3,2.6-6,5.9-6.1h.2c1.6,0,3.3.5,4.5,1.5l-1.3,1.6c-.9-.8-2.1-1.3-3.3-1.3-2.2,0-3.9,1.9-3.8,4.1h0c-.1,2.2,1.5,4.1,3.6,4.2.1,0,.2,0,.4,0,1,0,2-.3,2.8-.8v-2.2h-3v-1.8h5v4.9c-1.4,1.2-3.1,1.8-4.9,1.8-3.2.2-5.9-2.3-6.1-5.6v-.4h0Z"/>
  <path class="cls-4" d="M205.4,17.3h2.1v11.8h-2.1v-11.8Z"/>
  <path class="cls-4" d="M213.5,19.2h-3.7v-1.9h9.5v1.9h-3.7v9.8h-2.1v-9.8h0Z"/>
  <path class="cls-4" d="M224.1,17.2h1.9l5.1,11.8h-2.2l-1.2-2.9h-5.6l-1.2,2.8h-2.1l5.2-11.8h0ZM227.1,24.4l-2-4.7-2,4.7h4.1Z"/>
  <path class="cls-4" d="M233.2,17.3h2.1v9.9h6.2v1.9h-8.2v-11.8h0Z"/>
  <path class="cls-4" d="M173.1,40.3h0c0-3.4,2.8-6.2,6.1-6.2s6.1,2.8,6.1,6.2h0c0,3.4-2.8,6.1-6.1,6.1s-6.1-2.8-6.1-6.1ZM183.2,40.3h0c.1-2.2-1.6-4.1-3.8-4.2h-.1c-2.2,0-4,1.8-4,4v.2h0c0,2.2,1.6,4.1,3.9,4.2h.1c2.2,0,4-1.8,4-4h0c0-.1,0-.1,0-.1Z"/>
  <path class="cls-4" d="M187.9,34.3h4.6c2.8,0,4.5,1.6,4.5,3.9h0c0,2.6-2.1,4-4.7,4h-2.3v3.8h-2.1v-11.7h0ZM192.4,40.4c1.6,0,2.6-.8,2.6-2.1h0c0-1.4-1-2.1-2.6-2.1h-2.4v4.2s2.4,0,2.4,0Z"/>
  <path class="cls-4" d="M199.2,34.3h4.6c2.8,0,4.5,1.6,4.5,3.9h0c0,2.6-2.1,4-4.7,4h-2.3v3.8h-2.1v-11.7h0ZM203.6,40.4c1.6,0,2.6-.8,2.6-2.1h0c0-1.4-1-2.1-2.6-2.1h-2.4v4.2s2.4,0,2.4,0Z"/>
  <path class="cls-4" d="M209.9,40.3h0c0-3.4,2.8-6.2,6.1-6.2s6.1,2.8,6.1,6.2h0c0,3.4-2.8,6.1-6.1,6.1s-6.1-2.8-6.1-6.1ZM220,40.3h0c.1-2.2-1.6-4.1-3.8-4.2h-.2c-2.2,0-4,1.8-4,4v.2h0c0,2.2,1.6,4.1,3.9,4.2h.1c2.2,0,4-1.8,4-4h0c0-.1,0-.1,0-.1h0Z"/>
  <path class="cls-4" d="M224.6,34.3h5.2c1.2,0,2.5.3,3.4,1.2.6.7,1,1.6,1,2.6h0c0,1.7-1.1,3.2-2.8,3.6l3.2,4.4h-2.4l-2.9-4h-2.6v4.1h-2.1v-11.8s0,0,0,0ZM229.8,40.1c1.5,0,2.4-.8,2.4-2h0c0-1.3-.9-2-2.4-2h-3v4h3Z"/>
  <path class="cls-4" d="M239.6,36.3h-3.7v-1.9h9.5v1.9h-3.7v9.9h-2.1v-9.8Z"/>
  <path class="cls-4" d="M247.4,41.1v-6.8h2.1v6.7c0,2.2,1.1,3.3,3,3.3s3-1.1,3-3.3v-6.8h2.1v6.7c0,3.5-2,5.3-5,5.3s-5-1.7-5-5.2h0Z"/>
  <path class="cls-4" d="M260.3,34.3h1.9l6.3,8.1v-8.1h2v11.8h-1.7l-6.5-8.4v8.4h-2v-11.8h0Z"/>
  <path class="cls-4" d="M273.7,34.3h2.1v11.8h-2.1v-11.8Z"/>
  <path class="cls-4" d="M281.8,36.3h-3.7v-1.9h9.5v1.9h-3.7v9.9h-2.1v-9.8Z"/>
  <path class="cls-4" d="M293.2,41.5l-4.7-7.2h2.5l3.3,5.2,3.4-5.2h2.4l-4.7,7.1v4.7h-2.1v-4.6h0Z"/>
  <path class="cls-4" d="M176.5,53.3h-3.7v-1.9h9.5v1.9h-3.7v9.9h-2.1v-9.8h0Z"/>
  <path class="cls-4" d="M184.6,51.4h5.2c1.2,0,2.5.3,3.4,1.2.6.7,1,1.6,1,2.6h0c0,1.7-1.1,3.2-2.8,3.6l3.2,4.4h-2.4l-2.9-4h-2.6v4.1h-2.1v-11.8s0,0,0,0ZM189.7,57.2c1.5,0,2.4-.8,2.4-2h0c0-1.3-.9-1.9-2.4-1.9h-3v3.9h3Z"/>
  <path class="cls-4" d="M196.5,58.2v-6.8h2.1v6.7c0,2.2,1.1,3.3,3,3.3s3-1.1,3-3.3v-6.8h2.1v6.7c0,3.5-2,5.3-5.1,5.3s-5-1.8-5-5.2h0Z"/>
  <path class="cls-4" d="M208.6,61.5l1.3-1.5c1,1,2.3,1.5,3.7,1.5,1.3,0,2.1-.6,2.1-1.5h0c0-.8-.5-1.3-2.6-1.8-2.5-.6-3.9-1.3-3.9-3.5h0c0-2,1.7-3.4,4-3.4,1.6,0,3.1.5,4.3,1.5l-1.1,1.6c-.9-.8-2-1.2-3.2-1.2-1.2,0-1.9.6-1.9,1.4h0c0,.9.5,1.3,2.8,1.8,2.5.6,3.8,1.5,3.8,3.4h0c0,2.2-1.7,3.5-4.2,3.5-1.8,0-3.6-.6-4.9-1.8h0Z"/>
  <path class="cls-4" d="M222.8,53.3h-3.7v-1.9h9.5v1.9h-3.7v9.9h-2.1v-9.8h0Z"/>
  <g class="cls-1">
    <g>
      <rect class="cls-3" x="-2.2" y="-19.9" width="166.3" height="122.7"/>
      <g class="cls-6">
        <g>
          <polygon class="cls-5" points="-.6 -22.5 .7 -19.2 4.1 -20.2 2.3 -17.2 5.3 -15.1 1.8 -14.6 2 -11.1 -.6 -13.5 -3.2 -11.1 -3 -14.6 -6.5 -15.1 -3.5 -17.2 -5.3 -20.2 -1.9 -19.2 -.6 -22.5"/>
          <polygon class="cls-5" points="14 -22.5 15.3 -19.2 18.8 -20.2 17 -17.2 19.9 -15.1 16.4 -14.6 16.6 -11.1 14 -13.5 11.4 -11.1 11.7 -14.6 8.2 -15.1 11.1 -17.2 9.3 -20.2 12.7 -19.2 14 -22.5"/>
          <polygon class="cls-5" points="28.7 -22.5 30 -19.2 33.4 -20.2 31.6 -17.2 34.6 -15.1 31 -14.6 31.3 -11.1 28.7 -13.5 26.1 -11.1 26.3 -14.6 22.8 -15.1 25.7 -17.2 24 -20.2 27.4 -19.2 28.7 -22.5"/>
          <polygon class="cls-5" points="43.3 -22.5 44.6 -19.2 48 -20.2 46.3 -17.2 49.2 -15.1 45.7 -14.6 45.9 -11.1 43.3 -13.5 40.7 -11.1 41 -14.6 37.4 -15.1 40.4 -17.2 38.6 -20.2 42 -19.2 43.3 -22.5"/>
          <polygon class="cls-5" points="58 -22.5 59.3 -19.2 62.7 -20.2 60.9 -17.2 63.8 -15.1 60.3 -14.6 60.6 -11.1 58 -13.5 55.3 -11.1 55.6 -14.6 52.1 -15.1 55 -17.2 53.2 -20.2 56.6 -19.2 58 -22.5"/>
          <polygon class="cls-5" points="72.6 -22.5 73.9 -19.2 77.3 -20.2 75.5 -17.2 78.5 -15.1 75 -14.6 75.2 -11.1 72.6 -13.5 70 -11.1 70.2 -14.6 66.7 -15.1 69.7 -17.2 67.9 -20.2 71.3 -19.2 72.6 -22.5"/>
          <polygon class="cls-5" points="87.2 -22.5 88.5 -19.2 91.9 -20.2 90.2 -17.2 93.1 -15.1 89.6 -14.6 89.9 -11.1 87.2 -13.5 84.6 -11.1 84.9 -14.6 81.4 -15.1 84.3 -17.2 82.5 -20.2 85.9 -19.2 87.2 -22.5"/>
          <polygon class="cls-5" points="101.9 -22.5 103.2 -19.2 106.6 -20.2 104.8 -17.2 107.8 -15.1 104.2 -14.6 104.5 -11.1 101.9 -13.5 99.3 -11.1 99.5 -14.6 96 -15.1 98.9 -17.2 97.2 -20.2 100.6 -19.2 101.9 -22.5"/>
          <polygon class="cls-5" points="116.5 -22.5 117.8 -19.2 121.2 -20.2 119.4 -17.2 122.4 -15.1 118.9 -14.6 119.1 -11.1 116.5 -13.5 113.9 -11.1 114.2 -14.6 110.6 -15.1 113.6 -17.2 111.8 -20.2 115.2 -19.2 116.5 -22.5"/>
          <polygon class="cls-5" points="131.2 -22.5 132.5 -19.2 135.9 -20.2 134.1 -17.2 137 -15.1 133.5 -14.6 133.8 -11.1 131.2 -13.5 128.5 -11.1 128.8 -14.6 125.3 -15.1 128.2 -17.2 126.4 -20.2 129.8 -19.2 131.2 -22.5"/>
          <polygon class="cls-5" points="145.8 -22.5 147.1 -19.2 150.5 -20.2 148.7 -17.2 151.7 -15.1 148.1 -14.6 148.4 -11.1 145.8 -13.5 143.2 -11.1 143.4 -14.6 139.9 -15.1 142.9 -17.2 141.1 -20.2 144.5 -19.2 145.8 -22.5"/>
          <polygon class="cls-5" points="160.4 -22.5 161.7 -19.2 165.1 -20.2 163.4 -17.2 166.3 -15.1 162.8 -14.6 163 -11.1 160.4 -13.5 157.8 -11.1 158.1 -14.6 154.5 -15.1 157.5 -17.2 155.7 -20.2 159.1 -19.2 160.4 -22.5"/>
          <polygon class="cls-5" points="6.7 -11.1 8 -7.7 11.4 -8.8 9.7 -5.7 12.6 -3.7 9.1 -3.1 9.3 .4 6.7 -2 4.1 .4 4.4 -3.1 .8 -3.7 3.8 -5.7 2 -8.8 5.4 -7.7 6.7 -11.1"/>
          <polygon class="cls-5" points="21.3 -11.1 22.7 -7.7 26.1 -8.8 24.3 -5.7 27.2 -3.7 23.7 -3.1 24 .4 21.3 -2 18.7 .4 19 -3.1 15.5 -3.7 18.4 -5.7 16.6 -8.8 20.1 -7.7 21.3 -11.1"/>
          <polygon class="cls-5" points="36 -11.1 37.3 -7.7 40.7 -8.8 38.9 -5.7 41.9 -3.7 38.4 -3.1 38.6 .4 36 -2 33.4 .4 33.6 -3.1 30.1 -3.7 33.1 -5.7 31.3 -8.8 34.7 -7.7 36 -11.1"/>
          <polygon class="cls-5" points="50.6 -11.1 51.9 -7.7 55.3 -8.8 53.6 -5.7 56.5 -3.7 53 -3.1 53.3 .4 50.6 -2 48 .4 48.3 -3.1 44.8 -3.7 47.7 -5.7 45.9 -8.8 49.3 -7.7 50.6 -11.1"/>
          <polygon class="cls-5" points="65.3 -11.1 66.6 -7.7 70 -8.8 68.2 -5.7 71.2 -3.7 67.6 -3.1 67.9 .4 65.3 -2 62.7 .4 62.9 -3.1 59.4 -3.7 62.3 -5.7 60.6 -8.8 64 -7.7 65.3 -11.1"/>
          <polygon class="cls-5" points="79.9 -11.1 81.2 -7.7 84.6 -8.8 82.8 -5.7 85.8 -3.7 82.3 -3.1 82.5 .4 79.9 -2 77.3 .4 77.6 -3.1 74 -3.7 77 -5.7 75.2 -8.8 78.6 -7.7 79.9 -11.1"/>
          <polygon class="cls-5" points="94.6 -11.1 95.9 -7.7 99.3 -8.8 97.5 -5.7 100.4 -3.7 96.9 -3.1 97.2 .4 94.6 -2 91.9 .4 92.2 -3.1 88.7 -3.7 91.6 -5.7 89.8 -8.8 93.2 -7.7 94.6 -11.1"/>
          <polygon class="cls-5" points="109.2 -11.1 110.5 -7.7 113.9 -8.8 112.1 -5.7 115.1 -3.7 111.5 -3.1 111.8 .4 109.2 -2 106.6 .4 106.8 -3.1 103.3 -3.7 106.2 -5.7 104.5 -8.8 107.9 -7.7 109.2 -11.1"/>
          <polygon class="cls-5" points="123.8 -11.1 125.1 -7.7 128.5 -8.8 126.8 -5.7 129.7 -3.7 126.2 -3.1 126.4 .4 123.8 -2 121.2 .4 121.5 -3.1 118 -3.7 120.9 -5.7 119.1 -8.8 122.5 -7.7 123.8 -11.1"/>
          <polygon class="cls-5" points="138.5 -11.1 139.8 -7.7 143.2 -8.8 141.4 -5.7 144.3 -3.7 140.8 -3.1 141.1 .4 138.5 -2 135.9 .4 136.1 -3.1 132.6 -3.7 135.5 -5.7 133.8 -8.8 137.2 -7.7 138.5 -11.1"/>
          <polygon class="cls-5" points="153.1 -11.1 154.4 -7.7 157.8 -8.8 156.1 -5.7 159 -3.7 155.5 -3.1 155.7 .4 153.1 -2 150.5 .4 150.8 -3.1 147.2 -3.7 150.2 -5.7 148.4 -8.8 151.8 -7.7 153.1 -11.1"/>
          <polygon class="cls-5" points="167.7 -11.1 169.1 -7.7 172.5 -8.8 170.7 -5.7 173.6 -3.7 170.1 -3.1 170.4 .4 167.7 -2 165.1 .4 165.4 -3.1 161.9 -3.7 164.8 -5.7 163 -8.8 166.4 -7.7 167.7 -11.1"/>
          <polygon class="cls-5" points="-.6 .4 .7 3.7 4.1 2.7 2.3 5.8 5.3 7.8 1.8 8.3 2 11.9 -.6 9.5 -3.2 11.9 -3 8.3 -6.5 7.8 -3.5 5.8 -5.3 2.7 -1.9 3.7 -.6 .4"/>
          <polygon class="cls-5" points="14 .4 15.3 3.7 18.8 2.7 17 5.8 19.9 7.8 16.4 8.3 16.6 11.9 14 9.5 11.4 11.9 11.7 8.3 8.2 7.8 11.1 5.8 9.3 2.7 12.7 3.7 14 .4"/>
          <polygon class="cls-5" points="28.7 .4 30 3.7 33.4 2.7 31.6 5.8 34.6 7.8 31 8.3 31.3 11.9 28.7 9.5 26.1 11.9 26.3 8.3 22.8 7.8 25.7 5.8 24 2.7 27.4 3.7 28.7 .4"/>
          <polygon class="cls-5" points="43.3 .4 44.6 3.7 48 2.7 46.3 5.8 49.2 7.8 45.7 8.3 45.9 11.9 43.3 9.5 40.7 11.9 41 8.3 37.4 7.8 40.4 5.8 38.6 2.7 42 3.7 43.3 .4"/>
          <polygon class="cls-5" points="58 .4 59.3 3.7 62.7 2.7 60.9 5.8 63.8 7.8 60.3 8.3 60.6 11.9 58 9.5 55.3 11.9 55.6 8.3 52.1 7.8 55 5.8 53.2 2.7 56.6 3.7 58 .4"/>
          <polygon class="cls-5" points="72.6 .4 73.9 3.7 77.3 2.7 75.5 5.8 78.5 7.8 75 8.3 75.2 11.9 72.6 9.5 70 11.9 70.2 8.3 66.7 7.8 69.7 5.8 67.9 2.7 71.3 3.7 72.6 .4"/>
          <polygon class="cls-5" points="87.2 .4 88.5 3.7 91.9 2.7 90.2 5.8 93.1 7.8 89.6 8.3 89.9 11.9 87.2 9.5 84.6 11.9 84.9 8.3 81.4 7.8 84.3 5.8 82.5 2.7 85.9 3.7 87.2 .4"/>
          <polygon class="cls-5" points="101.9 .4 103.2 3.7 106.6 2.7 104.8 5.8 107.8 7.8 104.2 8.3 104.5 11.9 101.9 9.5 99.3 11.9 99.5 8.3 96 7.8 98.9 5.8 97.2 2.7 100.6 3.7 101.9 .4"/>
          <polygon class="cls-5" points="116.5 .4 117.8 3.7 121.2 2.7 119.4 5.8 122.4 7.8 118.9 8.3 119.1 11.9 116.5 9.5 113.9 11.9 114.2 8.3 110.6 7.8 113.6 5.8 111.8 2.7 115.2 3.7 116.5 .4"/>
          <polygon class="cls-5" points="131.2 .4 132.5 3.7 135.9 2.7 134.1 5.8 137 7.8 133.5 8.3 133.8 11.9 131.2 9.5 128.5 11.9 128.8 8.3 125.3 7.8 128.2 5.8 126.4 2.7 129.8 3.7 131.2 .4"/>
          <polygon class="cls-5" points="145.8 .4 147.1 3.7 150.5 2.7 148.7 5.8 151.7 7.8 148.1 8.3 148.4 11.9 145.8 9.5 143.2 11.9 143.4 8.3 139.9 7.8 142.9 5.8 141.1 2.7 144.5 3.7 145.8 .4"/>
          <polygon class="cls-5" points="160.4 .4 161.7 3.7 165.1 2.7 163.4 5.8 166.3 7.8 162.8 8.3 163 11.9 160.4 9.5 157.8 11.9 158.1 8.3 154.5 7.8 157.5 5.8 155.7 2.7 159.1 3.7 160.4 .4"/>
          <polygon class="cls-5" points="6.7 11.9 8 15.2 11.4 14.2 9.7 17.2 12.6 19.3 9.1 19.8 9.3 23.3 6.7 20.9 4.1 23.3 4.4 19.8 .8 19.3 3.8 17.2 2 14.2 5.4 15.2 6.7 11.9"/>
          <polygon class="cls-5" points="21.3 11.9 22.7 15.2 26.1 14.2 24.3 17.2 27.2 19.3 23.7 19.8 24 23.3 21.3 20.9 18.7 23.3 19 19.8 15.5 19.3 18.4 17.2 16.6 14.2 20.1 15.2 21.3 11.9"/>
          <polygon class="cls-5" points="36 11.9 37.3 15.2 40.7 14.2 38.9 17.2 41.9 19.3 38.4 19.8 38.6 23.3 36 20.9 33.4 23.3 33.6 19.8 30.1 19.3 33.1 17.2 31.3 14.2 34.7 15.2 36 11.9"/>
          <polygon class="cls-5" points="50.6 11.9 51.9 15.2 55.3 14.2 53.6 17.2 56.5 19.3 53 19.8 53.3 23.3 50.6 20.9 48 23.3 48.3 19.8 44.8 19.3 47.7 17.2 45.9 14.2 49.3 15.2 50.6 11.9"/>
          <polygon class="cls-5" points="65.3 11.9 66.6 15.2 70 14.2 68.2 17.2 71.2 19.3 67.6 19.8 67.9 23.3 65.3 20.9 62.7 23.3 62.9 19.8 59.4 19.3 62.3 17.2 60.6 14.2 64 15.2 65.3 11.9"/>
          <polygon class="cls-5" points="79.9 11.9 81.2 15.2 84.6 14.2 82.8 17.2 85.8 19.3 82.3 19.8 82.5 23.3 79.9 20.9 77.3 23.3 77.6 19.8 74 19.3 77 17.2 75.2 14.2 78.6 15.2 79.9 11.9"/>
          <polygon class="cls-5" points="94.6 11.9 95.9 15.2 99.3 14.2 97.5 17.2 100.4 19.3 96.9 19.8 97.2 23.3 94.6 20.9 91.9 23.3 92.2 19.8 88.7 19.3 91.6 17.2 89.8 14.2 93.2 15.2 94.6 11.9"/>
          <polygon class="cls-5" points="109.2 11.9 110.5 15.2 113.9 14.2 112.1 17.2 115.1 19.3 111.5 19.8 111.8 23.3 109.2 20.9 106.6 23.3 106.8 19.8 103.3 19.3 106.2 17.2 104.5 14.2 107.9 15.2 109.2 11.9"/>
          <polygon class="cls-5" points="123.8 11.9 125.1 15.2 128.5 14.2 126.8 17.2 129.7 19.3 126.2 19.8 126.4 23.3 123.8 20.9 121.2 23.3 121.5 19.8 118 19.3 120.9 17.2 119.1 14.2 122.5 15.2 123.8 11.9"/>
          <polygon class="cls-5" points="138.5 11.9 139.8 15.2 143.2 14.2 141.4 17.2 144.3 19.3 140.8 19.8 141.1 23.3 138.5 20.9 135.9 23.3 136.1 19.8 132.6 19.3 135.5 17.2 133.8 14.2 137.2 15.2 138.5 11.9"/>
          <polygon class="cls-5" points="153.1 11.9 154.4 15.2 157.8 14.2 156.1 17.2 159 19.3 155.5 19.8 155.7 23.3 153.1 20.9 150.5 23.3 150.8 19.8 147.2 19.3 150.2 17.2 148.4 14.2 151.8 15.2 153.1 11.9"/>
          <polygon class="cls-5" points="167.7 11.9 169.1 15.2 172.5 14.2 170.7 17.2 173.6 19.3 170.1 19.8 170.4 23.3 167.7 20.9 165.1 23.3 165.4 19.8 161.9 19.3 164.8 17.2 163 14.2 166.4 15.2 167.7 11.9"/>
          <polygon class="cls-5" points="-.6 23.3 .7 26.7 4.1 25.6 2.3 28.7 5.3 30.7 1.8 31.3 2 34.8 -.6 32.4 -3.2 34.8 -3 31.3 -6.5 30.7 -3.5 28.7 -5.3 25.6 -1.9 26.7 -.6 23.3"/>
          <polygon class="cls-5" points="14 23.3 15.3 26.7 18.8 25.6 17 28.7 19.9 30.7 16.4 31.3 16.6 34.8 14 32.4 11.4 34.8 11.7 31.3 8.2 30.7 11.1 28.7 9.3 25.6 12.7 26.7 14 23.3"/>
          <polygon class="cls-5" points="28.7 23.3 30 26.7 33.4 25.6 31.6 28.7 34.6 30.7 31 31.3 31.3 34.8 28.7 32.4 26.1 34.8 26.3 31.3 22.8 30.7 25.7 28.7 24 25.6 27.4 26.7 28.7 23.3"/>
          <polygon class="cls-5" points="43.3 23.3 44.6 26.7 48 25.6 46.3 28.7 49.2 30.7 45.7 31.3 45.9 34.8 43.3 32.4 40.7 34.8 41 31.3 37.4 30.7 40.4 28.7 38.6 25.6 42 26.7 43.3 23.3"/>
          <polygon class="cls-5" points="58 23.3 59.3 26.7 62.7 25.6 60.9 28.7 63.8 30.7 60.3 31.3 60.6 34.8 58 32.4 55.3 34.8 55.6 31.3 52.1 30.7 55 28.7 53.2 25.6 56.6 26.7 58 23.3"/>
          <polygon class="cls-5" points="72.6 23.3 73.9 26.7 77.3 25.6 75.5 28.7 78.5 30.7 75 31.3 75.2 34.8 72.6 32.4 70 34.8 70.2 31.3 66.7 30.7 69.7 28.7 67.9 25.6 71.3 26.7 72.6 23.3"/>
          <polygon class="cls-5" points="87.2 23.3 88.5 26.7 91.9 25.6 90.2 28.7 93.1 30.7 89.6 31.3 89.9 34.8 87.2 32.4 84.6 34.8 84.9 31.3 81.4 30.7 84.3 28.7 82.5 25.6 85.9 26.7 87.2 23.3"/>
          <polygon class="cls-5" points="101.9 23.3 103.2 26.7 106.6 25.6 104.8 28.7 107.8 30.7 104.2 31.3 104.5 34.8 101.9 32.4 99.3 34.8 99.5 31.3 96 30.7 98.9 28.7 97.2 25.6 100.6 26.7 101.9 23.3"/>
          <polygon class="cls-5" points="116.5 23.3 117.8 26.7 121.2 25.6 119.4 28.7 122.4 30.7 118.9 31.3 119.1 34.8 116.5 32.4 113.9 34.8 114.2 31.3 110.6 30.7 113.6 28.7 111.8 25.6 115.2 26.7 116.5 23.3"/>
          <polygon class="cls-5" points="131.2 23.3 132.5 26.7 135.9 25.6 134.1 28.7 137 30.7 133.5 31.3 133.8 34.8 131.2 32.4 128.5 34.8 128.8 31.3 125.3 30.7 128.2 28.7 126.4 25.6 129.8 26.7 131.2 23.3"/>
          <polygon class="cls-5" points="145.8 23.3 147.1 26.7 150.5 25.6 148.7 28.7 151.7 30.7 148.1 31.3 148.4 34.8 145.8 32.4 143.2 34.8 143.4 31.3 139.9 30.7 142.9 28.7 141.1 25.6 144.5 26.7 145.8 23.3"/>
          <polygon class="cls-5" points="160.4 23.3 161.7 26.7 165.1 25.6 163.4 28.7 166.3 30.7 162.8 31.3 163 34.8 160.4 32.4 157.8 34.8 158.1 31.3 154.5 30.7 157.5 28.7 155.7 25.6 159.1 26.7 160.4 23.3"/>
          <polygon class="cls-5" points="6.7 34.8 8 38.1 11.4 37.1 9.7 40.2 12.6 42.2 9.1 42.7 9.3 46.3 6.7 43.9 4.1 46.3 4.4 42.7 .8 42.2 3.8 40.2 2 37.1 5.4 38.1 6.7 34.8"/>
          <polygon class="cls-5" points="21.3 34.8 22.7 38.1 26.1 37.1 24.3 40.2 27.2 42.2 23.7 42.7 24 46.3 21.3 43.9 18.7 46.3 19 42.7 15.5 42.2 18.4 40.2 16.6 37.1 20.1 38.1 21.3 34.8"/>
          <polygon class="cls-5" points="36 34.8 37.3 38.1 40.7 37.1 38.9 40.2 41.9 42.2 38.4 42.7 38.6 46.3 36 43.9 33.4 46.3 33.6 42.7 30.1 42.2 33.1 40.2 31.3 37.1 34.7 38.1 36 34.8"/>
          <polygon class="cls-5" points="50.6 34.8 51.9 38.1 55.3 37.1 53.6 40.2 56.5 42.2 53 42.7 53.3 46.3 50.6 43.9 48 46.3 48.3 42.7 44.8 42.2 47.7 40.2 45.9 37.1 49.3 38.1 50.6 34.8"/>
          <polygon class="cls-5" points="65.3 34.8 66.6 38.1 70 37.1 68.2 40.2 71.2 42.2 67.6 42.7 67.9 46.3 65.3 43.9 62.7 46.3 62.9 42.7 59.4 42.2 62.3 40.2 60.6 37.1 64 38.1 65.3 34.8"/>
          <polygon class="cls-5" points="79.9 34.8 81.2 38.1 84.6 37.1 82.8 40.2 85.8 42.2 82.3 42.7 82.5 46.3 79.9 43.9 77.3 46.3 77.6 42.7 74 42.2 77 40.2 75.2 37.1 78.6 38.1 79.9 34.8"/>
          <polygon class="cls-5" points="94.6 34.8 95.9 38.1 99.3 37.1 97.5 40.2 100.4 42.2 96.9 42.7 97.2 46.3 94.6 43.9 91.9 46.3 92.2 42.7 88.7 42.2 91.6 40.2 89.8 37.1 93.2 38.1 94.6 34.8"/>
          <polygon class="cls-5" points="109.2 34.8 110.5 38.1 113.9 37.1 112.1 40.2 115.1 42.2 111.5 42.7 111.8 46.3 109.2 43.9 106.6 46.3 106.8 42.7 103.3 42.2 106.2 40.2 104.5 37.1 107.9 38.1 109.2 34.8"/>
          <polygon class="cls-5" points="123.8 34.8 125.1 38.1 128.5 37.1 126.8 40.2 129.7 42.2 126.2 42.7 126.4 46.3 123.8 43.9 121.2 46.3 121.5 42.7 118 42.2 120.9 40.2 119.1 37.1 122.5 38.1 123.8 34.8"/>
          <polygon class="cls-5" points="138.5 34.8 139.8 38.1 143.2 37.1 141.4 40.2 144.3 42.2 140.8 42.7 141.1 46.3 138.5 43.9 135.9 46.3 136.1 42.7 132.6 42.2 135.5 40.2 133.8 37.1 137.2 38.1 138.5 34.8"/>
          <polygon class="cls-5" points="153.1 34.8 154.4 38.1 157.8 37.1 156.1 40.2 159 42.2 155.5 42.7 155.7 46.3 153.1 43.9 150.5 46.3 150.8 42.7 147.2 42.2 150.2 40.2 148.4 37.1 151.8 38.1 153.1 34.8"/>
          <polygon class="cls-5" points="167.7 34.8 169.1 38.1 172.5 37.1 170.7 40.2 173.6 42.2 170.1 42.7 170.4 46.3 167.7 43.9 165.1 46.3 165.4 42.7 161.9 42.2 164.8 40.2 163 37.1 166.4 38.1 167.7 34.8"/>
          <polygon class="cls-5" points="-.6 46.3 .7 49.6 4.1 48.6 2.3 51.6 5.3 53.7 1.8 54.2 2 57.7 -.6 55.3 -3.2 57.7 -3 54.2 -6.5 53.7 -3.5 51.6 -5.3 48.6 -1.9 49.6 -.6 46.3"/>
          <polygon class="cls-5" points="14 46.3 15.3 49.6 18.8 48.6 17 51.6 19.9 53.7 16.4 54.2 16.6 57.7 14 55.3 11.4 57.7 11.7 54.2 8.2 53.7 11.1 51.6 9.3 48.6 12.7 49.6 14 46.3"/>
          <polygon class="cls-5" points="28.7 46.3 30 49.6 33.4 48.6 31.6 51.6 34.6 53.7 31 54.2 31.3 57.7 28.7 55.3 26.1 57.7 26.3 54.2 22.8 53.7 25.7 51.6 24 48.6 27.4 49.6 28.7 46.3"/>
          <polygon class="cls-5" points="43.3 46.3 44.6 49.6 48 48.6 46.3 51.6 49.2 53.7 45.7 54.2 45.9 57.7 43.3 55.3 40.7 57.7 41 54.2 37.4 53.7 40.4 51.6 38.6 48.6 42 49.6 43.3 46.3"/>
          <polygon class="cls-5" points="58 46.3 59.3 49.6 62.7 48.6 60.9 51.6 63.8 53.7 60.3 54.2 60.6 57.7 58 55.3 55.3 57.7 55.6 54.2 52.1 53.7 55 51.6 53.2 48.6 56.6 49.6 58 46.3"/>
          <polygon class="cls-5" points="72.6 46.3 73.9 49.6 77.3 48.6 75.5 51.6 78.5 53.7 75 54.2 75.2 57.7 72.6 55.3 70 57.7 70.2 54.2 66.7 53.7 69.7 51.6 67.9 48.6 71.3 49.6 72.6 46.3"/>
          <polygon class="cls-5" points="87.2 46.3 88.5 49.6 91.9 48.6 90.2 51.6 93.1 53.7 89.6 54.2 89.9 57.7 87.2 55.3 84.6 57.7 84.9 54.2 81.4 53.7 84.3 51.6 82.5 48.6 85.9 49.6 87.2 46.3"/>
          <polygon class="cls-5" points="101.9 46.3 103.2 49.6 106.6 48.6 104.8 51.6 107.8 53.7 104.2 54.2 104.5 57.7 101.9 55.3 99.3 57.7 99.5 54.2 96 53.7 98.9 51.6 97.2 48.6 100.6 49.6 101.9 46.3"/>
          <polygon class="cls-5" points="116.5 46.3 117.8 49.6 121.2 48.6 119.4 51.6 122.4 53.7 118.9 54.2 119.1 57.7 116.5 55.3 113.9 57.7 114.2 54.2 110.6 53.7 113.6 51.6 111.8 48.6 115.2 49.6 116.5 46.3"/>
          <polygon class="cls-5" points="131.2 46.3 132.5 49.6 135.9 48.6 134.1 51.6 137 53.7 133.5 54.2 133.8 57.7 131.2 55.3 128.5 57.7 128.8 54.2 125.3 53.7 128.2 51.6 126.4 48.6 129.8 49.6 131.2 46.3"/>
          <polygon class="cls-5" points="145.8 46.3 147.1 49.6 150.5 48.6 148.7 51.6 151.7 53.7 148.1 54.2 148.4 57.7 145.8 55.3 143.2 57.7 143.4 54.2 139.9 53.7 142.9 51.6 141.1 48.6 144.5 49.6 145.8 46.3"/>
          <polygon class="cls-5" points="160.4 46.3 161.7 49.6 165.1 48.6 163.4 51.6 166.3 53.7 162.8 54.2 163 57.7 160.4 55.3 157.8 57.7 158.1 54.2 154.5 53.7 157.5 51.6 155.7 48.6 159.1 49.6 160.4 46.3"/>
          <polygon class="cls-5" points="6.7 57.7 8 61.1 11.4 60 9.7 63.1 12.6 65.1 9.1 65.7 9.3 69.2 6.7 66.8 4.1 69.2 4.4 65.7 .8 65.1 3.8 63.1 2 60 5.4 61.1 6.7 57.7"/>
          <polygon class="cls-5" points="21.3 57.7 22.7 61.1 26.1 60 24.3 63.1 27.2 65.1 23.7 65.7 24 69.2 21.3 66.8 18.7 69.2 19 65.7 15.5 65.1 18.4 63.1 16.6 60 20.1 61.1 21.3 57.7"/>
          <polygon class="cls-5" points="36 57.7 37.3 61.1 40.7 60 38.9 63.1 41.9 65.1 38.4 65.7 38.6 69.2 36 66.8 33.4 69.2 33.6 65.7 30.1 65.1 33.1 63.1 31.3 60 34.7 61.1 36 57.7"/>
          <polygon class="cls-5" points="50.6 57.7 51.9 61.1 55.3 60 53.6 63.1 56.5 65.1 53 65.7 53.3 69.2 50.6 66.8 48 69.2 48.3 65.7 44.8 65.1 47.7 63.1 45.9 60 49.3 61.1 50.6 57.7"/>
          <polygon class="cls-5" points="65.3 57.7 66.6 61.1 70 60 68.2 63.1 71.2 65.1 67.6 65.7 67.9 69.2 65.3 66.8 62.7 69.2 62.9 65.7 59.4 65.1 62.3 63.1 60.6 60 64 61.1 65.3 57.7"/>
          <polygon class="cls-5" points="79.9 57.7 81.2 61.1 84.6 60 82.8 63.1 85.8 65.1 82.3 65.7 82.5 69.2 79.9 66.8 77.3 69.2 77.6 65.7 74 65.1 77 63.1 75.2 60 78.6 61.1 79.9 57.7"/>
          <polygon class="cls-5" points="94.6 57.7 95.9 61.1 99.3 60 97.5 63.1 100.4 65.1 96.9 65.7 97.2 69.2 94.6 66.8 91.9 69.2 92.2 65.7 88.7 65.1 91.6 63.1 89.8 60 93.2 61.1 94.6 57.7"/>
          <polygon class="cls-5" points="109.2 57.7 110.5 61.1 113.9 60 112.1 63.1 115.1 65.1 111.5 65.7 111.8 69.2 109.2 66.8 106.6 69.2 106.8 65.7 103.3 65.1 106.2 63.1 104.5 60 107.9 61.1 109.2 57.7"/>
          <polygon class="cls-5" points="123.8 57.7 125.1 61.1 128.5 60 126.8 63.1 129.7 65.1 126.2 65.7 126.4 69.2 123.8 66.8 121.2 69.2 121.5 65.7 118 65.1 120.9 63.1 119.1 60 122.5 61.1 123.8 57.7"/>
          <polygon class="cls-5" points="138.5 57.7 139.8 61.1 143.2 60 141.4 63.1 144.3 65.1 140.8 65.7 141.1 69.2 138.5 66.8 135.9 69.2 136.1 65.7 132.6 65.1 135.5 63.1 133.8 60 137.2 61.1 138.5 57.7"/>
          <polygon class="cls-5" points="153.1 57.7 154.4 61.1 157.8 60 156.1 63.1 159 65.1 155.5 65.7 155.7 69.2 153.1 66.8 150.5 69.2 150.8 65.7 147.2 65.1 150.2 63.1 148.4 60 151.8 61.1 153.1 57.7"/>
          <polygon class="cls-5" points="167.7 57.7 169.1 61.1 172.5 60 170.7 63.1 173.6 65.1 170.1 65.7 170.4 69.2 167.7 66.8 165.1 69.2 165.4 65.7 161.9 65.1 164.8 63.1 163 60 166.4 61.1 167.7 57.7"/>
          <polygon class="cls-5" points="-.6 69.2 .7 72.5 4.1 71.5 2.3 74.6 5.3 76.6 1.8 77.1 2 80.7 -.6 78.3 -3.2 80.7 -3 77.1 -6.5 76.6 -3.5 74.6 -5.3 71.5 -1.9 72.5 -.6 69.2"/>
          <polygon class="cls-5" points="14 69.2 15.3 72.5 18.8 71.5 17 74.6 19.9 76.6 16.4 77.1 16.6 80.7 14 78.3 11.4 80.7 11.7 77.1 8.2 76.6 11.1 74.6 9.3 71.5 12.7 72.5 14 69.2"/>
          <polygon class="cls-5" points="28.7 69.2 30 72.5 33.4 71.5 31.6 74.6 34.6 76.6 31 77.1 31.3 80.7 28.7 78.3 26.1 80.7 26.3 77.1 22.8 76.6 25.7 74.6 24 71.5 27.4 72.5 28.7 69.2"/>
          <polygon class="cls-5" points="43.3 69.2 44.6 72.5 48 71.5 46.3 74.6 49.2 76.6 45.7 77.1 45.9 80.7 43.3 78.3 40.7 80.7 41 77.1 37.4 76.6 40.4 74.6 38.6 71.5 42 72.5 43.3 69.2"/>
          <polygon class="cls-5" points="58 69.2 59.3 72.5 62.7 71.5 60.9 74.6 63.8 76.6 60.3 77.1 60.6 80.7 58 78.3 55.3 80.7 55.6 77.1 52.1 76.6 55 74.6 53.2 71.5 56.6 72.5 58 69.2"/>
          <polygon class="cls-5" points="72.6 69.2 73.9 72.5 77.3 71.5 75.5 74.6 78.5 76.6 75 77.1 75.2 80.7 72.6 78.3 70 80.7 70.2 77.1 66.7 76.6 69.7 74.6 67.9 71.5 71.3 72.5 72.6 69.2"/>
          <polygon class="cls-5" points="87.2 69.2 88.5 72.5 91.9 71.5 90.2 74.6 93.1 76.6 89.6 77.1 89.9 80.7 87.2 78.3 84.6 80.7 84.9 77.1 81.4 76.6 84.3 74.6 82.5 71.5 85.9 72.5 87.2 69.2"/>
          <polygon class="cls-5" points="101.9 69.2 103.2 72.5 106.6 71.5 104.8 74.6 107.8 76.6 104.2 77.1 104.5 80.7 101.9 78.3 99.3 80.7 99.5 77.1 96 76.6 98.9 74.6 97.2 71.5 100.6 72.5 101.9 69.2"/>
          <polygon class="cls-5" points="116.5 69.2 117.8 72.5 121.2 71.5 119.4 74.6 122.4 76.6 118.9 77.1 119.1 80.7 116.5 78.3 113.9 80.7 114.2 77.1 110.6 76.6 113.6 74.6 111.8 71.5 115.2 72.5 116.5 69.2"/>
          <polygon class="cls-5" points="131.2 69.2 132.5 72.5 135.9 71.5 134.1 74.6 137 76.6 133.5 77.1 133.8 80.7 131.2 78.3 128.5 80.7 128.8 77.1 125.3 76.6 128.2 74.6 126.4 71.5 129.8 72.5 131.2 69.2"/>
          <polygon class="cls-5" points="145.8 69.2 147.1 72.5 150.5 71.5 148.7 74.6 151.7 76.6 148.1 77.1 148.4 80.7 145.8 78.3 143.2 80.7 143.4 77.1 139.9 76.6 142.9 74.6 141.1 71.5 144.5 72.5 145.8 69.2"/>
          <polygon class="cls-5" points="160.4 69.2 161.7 72.5 165.1 71.5 163.4 74.6 166.3 76.6 162.8 77.1 163 80.7 160.4 78.3 157.8 80.7 158.1 77.1 154.5 76.6 157.5 74.6 155.7 71.5 159.1 72.5 160.4 69.2"/>
          <polygon class="cls-5" points="6.7 80.7 8 84 11.4 82.9 9.7 86 12.6 88 9.1 88.6 9.3 92.1 6.7 89.7 4.1 92.1 4.4 88.6 .8 88 3.8 86 2 82.9 5.4 84 6.7 80.7"/>
          <polygon class="cls-5" points="21.3 80.7 22.7 84 26.1 82.9 24.3 86 27.2 88 23.7 88.6 24 92.1 21.3 89.7 18.7 92.1 19 88.6 15.5 88 18.4 86 16.6 82.9 20.1 84 21.3 80.7"/>
          <polygon class="cls-5" points="36 80.7 37.3 84 40.7 82.9 38.9 86 41.9 88 38.4 88.6 38.6 92.1 36 89.7 33.4 92.1 33.6 88.6 30.1 88 33.1 86 31.3 82.9 34.7 84 36 80.7"/>
          <polygon class="cls-5" points="50.6 80.7 51.9 84 55.3 82.9 53.6 86 56.5 88 53 88.6 53.3 92.1 50.6 89.7 48 92.1 48.3 88.6 44.8 88 47.7 86 45.9 82.9 49.3 84 50.6 80.7"/>
          <polygon class="cls-5" points="65.3 80.7 66.6 84 70 82.9 68.2 86 71.2 88 67.6 88.6 67.9 92.1 65.3 89.7 62.7 92.1 62.9 88.6 59.4 88 62.3 86 60.6 82.9 64 84 65.3 80.7"/>
          <polygon class="cls-5" points="79.9 80.7 81.2 84 84.6 82.9 82.8 86 85.8 88 82.3 88.6 82.5 92.1 79.9 89.7 77.3 92.1 77.6 88.6 74 88 77 86 75.2 82.9 78.6 84 79.9 80.7"/>
          <polygon class="cls-5" points="94.6 80.7 95.9 84 99.3 82.9 97.5 86 100.4 88 96.9 88.6 97.2 92.1 94.6 89.7 91.9 92.1 92.2 88.6 88.7 88 91.6 86 89.8 82.9 93.2 84 94.6 80.7"/>
          <polygon class="cls-5" points="109.2 80.7 110.5 84 113.9 82.9 112.1 86 115.1 88 111.5 88.6 111.8 92.1 109.2 89.7 106.6 92.1 106.8 88.6 103.3 88 106.2 86 104.5 82.9 107.9 84 109.2 80.7"/>
          <polygon class="cls-5" points="123.8 80.7 125.1 84 128.5 82.9 126.8 86 129.7 88 126.2 88.6 126.4 92.1 123.8 89.7 121.2 92.1 121.5 88.6 118 88 120.9 86 119.1 82.9 122.5 84 123.8 80.7"/>
          <polygon class="cls-5" points="138.5 80.7 139.8 84 143.2 82.9 141.4 86 144.3 88 140.8 88.6 141.1 92.1 138.5 89.7 135.9 92.1 136.1 88.6 132.6 88 135.5 86 133.8 82.9 137.2 84 138.5 80.7"/>
          <polygon class="cls-5" points="153.1 80.7 154.4 84 157.8 82.9 156.1 86 159 88 155.5 88.6 155.7 92.1 153.1 89.7 150.5 92.1 150.8 88.6 147.2 88 150.2 86 148.4 82.9 151.8 84 153.1 80.7"/>
          <polygon class="cls-5" points="167.7 80.7 169.1 84 172.5 82.9 170.7 86 173.6 88 170.1 88.6 170.4 92.1 167.7 89.7 165.1 92.1 165.4 88.6 161.9 88 164.8 86 163 82.9 166.4 84 167.7 80.7"/>
          <polygon class="cls-5" points="-.6 92.1 .7 95.5 4.1 94.4 2.3 97.5 5.3 99.5 1.8 100.1 2 103.6 -.6 101.2 -3.2 103.6 -3 100.1 -6.5 99.5 -3.5 97.5 -5.3 94.4 -1.9 95.5 -.6 92.1"/>
          <polygon class="cls-5" points="14 92.1 15.3 95.5 18.8 94.4 17 97.5 19.9 99.5 16.4 100.1 16.6 103.6 14 101.2 11.4 103.6 11.7 100.1 8.2 99.5 11.1 97.5 9.3 94.4 12.7 95.5 14 92.1"/>
          <polygon class="cls-5" points="28.7 92.1 30 95.5 33.4 94.4 31.6 97.5 34.6 99.5 31 100.1 31.3 103.6 28.7 101.2 26.1 103.6 26.3 100.1 22.8 99.5 25.7 97.5 24 94.4 27.4 95.5 28.7 92.1"/>
          <polygon class="cls-5" points="43.3 92.1 44.6 95.5 48 94.4 46.3 97.5 49.2 99.5 45.7 100.1 45.9 103.6 43.3 101.2 40.7 103.6 41 100.1 37.4 99.5 40.4 97.5 38.6 94.4 42 95.5 43.3 92.1"/>
          <polygon class="cls-5" points="58 92.1 59.3 95.5 62.7 94.4 60.9 97.5 63.8 99.5 60.3 100.1 60.6 103.6 58 101.2 55.3 103.6 55.6 100.1 52.1 99.5 55 97.5 53.2 94.4 56.6 95.5 58 92.1"/>
          <polygon class="cls-5" points="72.6 92.1 73.9 95.5 77.3 94.4 75.5 97.5 78.5 99.5 75 100.1 75.2 103.6 72.6 101.2 70 103.6 70.2 100.1 66.7 99.5 69.7 97.5 67.9 94.4 71.3 95.5 72.6 92.1"/>
          <polygon class="cls-5" points="87.2 92.1 88.5 95.5 91.9 94.4 90.2 97.5 93.1 99.5 89.6 100.1 89.9 103.6 87.2 101.2 84.6 103.6 84.9 100.1 81.4 99.5 84.3 97.5 82.5 94.4 85.9 95.5 87.2 92.1"/>
          <polygon class="cls-5" points="101.9 92.1 103.2 95.5 106.6 94.4 104.8 97.5 107.8 99.5 104.2 100.1 104.5 103.6 101.9 101.2 99.3 103.6 99.5 100.1 96 99.5 98.9 97.5 97.2 94.4 100.6 95.5 101.9 92.1"/>
          <polygon class="cls-5" points="116.5 92.1 117.8 95.5 121.2 94.4 119.4 97.5 122.4 99.5 118.9 100.1 119.1 103.6 116.5 101.2 113.9 103.6 114.2 100.1 110.6 99.5 113.6 97.5 111.8 94.4 115.2 95.5 116.5 92.1"/>
          <polygon class="cls-5" points="131.2 92.1 132.5 95.5 135.9 94.4 134.1 97.5 137 99.5 133.5 100.1 133.8 103.6 131.2 101.2 128.5 103.6 128.8 100.1 125.3 99.5 128.2 97.5 126.4 94.4 129.8 95.5 131.2 92.1"/>
          <polygon class="cls-5" points="145.8 92.1 147.1 95.5 150.5 94.4 148.7 97.5 151.7 99.5 148.1 100.1 148.4 103.6 145.8 101.2 143.2 103.6 143.4 100.1 139.9 99.5 142.9 97.5 141.1 94.4 144.5 95.5 145.8 92.1"/>
          <polygon class="cls-5" points="160.4 92.1 161.7 95.5 165.1 94.4 163.4 97.5 166.3 99.5 162.8 100.1 163 103.6 160.4 101.2 157.8 103.6 158.1 100.1 154.5 99.5 157.5 97.5 155.7 94.4 159.1 95.5 160.4 92.1"/>
        </g>
      </g>
    </g>
  </g>
</svg>